<svg width="768" height="531" viewBox="0 0 768 531" fill="none" xmlns="http://www.w3.org/2000/svg">
<g clip-path="url(#clip0_3426_730)">
<path fill-rule="evenodd" clip-rule="evenodd" d="M-0.00012207 213.653L-9.15527e-05 531L768 531V372.131L1060.62 432.513L1118.29 203.463L1118.28 203.471C1113.97 203.92 1109.65 204.374 1105.34 204.828C1095.17 205.898 1085 206.969 1074.8 207.974C1063.49 209.087 1052.14 210.112 1040.76 211.049C1011.99 213.42 983.092 215.301 953.198 213.821C935.859 212.964 918.644 210.749 901.722 206.48C886.643 202.678 872.703 197.096 859.864 190.028C837.87 177.925 819.984 163.384 802.965 148.36C794.706 141.068 786.53 133.739 778.356 126.409C768.273 117.369 758.19 108.329 747.949 99.3603C737.948 90.5988 726.68 82.5277 714.292 75.1521C693.95 63.0395 671.013 57.1092 646.157 56.9546C632.561 56.8692 619.055 57.594 605.814 58.714C595.524 59.5832 585.346 60.7338 575.167 61.8846C567.353 62.7681 559.537 63.6517 551.668 64.4082C534.249 66.0838 516.521 66.864 498.221 64.8661C485.744 63.5039 473.534 60.8992 461.538 57.3818C440.103 51.0973 420.159 42.6714 400.219 34.2467C396.921 32.8534 393.623 31.46 390.318 30.0764C372.123 22.4595 353.767 15.0499 334.295 9.45867C315.358 4.01812 296.06 0.997795 276.421 1.02312C253.767 1.05224 232.293 3.77978 211.349 7.60351C198.524 9.94506 185.771 12.4031 173.019 14.861C157.595 17.834 142.171 20.807 126.62 23.5736C102.594 27.8485 77.7522 30.3468 51.6288 29.2845C28.673 28.3548 5.90979 24.8749 -16.5369 19.4916C-39.2391 14.0455 -61.476 7.398 -82.7617 -0.841683C-115.317 -13.4508 -147.642 -26.393 -179.936 -39.3639C-207.943 -50.6097 -235.878 -61.9462 -263.815 -73.2833C-274.383 -77.5718 -284.951 -81.8604 -295.523 -86.1442C-313.718 -93.5156 -331.91 -100.897 -350.1 -108.287C-350.789 -108.567 -351.447 -108.894 -352.105 -109.22C-352.401 -109.367 -352.697 -109.514 -352.995 -109.656L-412.946 128.441L-0.00012207 213.653Z" fill="url(#paint0_linear_3426_730)"/>
</g>
<defs>
<linearGradient id="paint0_linear_3426_730" x1="92.0801" y1="107.801" x2="880.933" y2="142.788" gradientUnits="userSpaceOnUse">
<stop stop-color="#FFF4E1"/>
<stop offset="1" stop-color="#FFECF1"/>
</linearGradient>
<clipPath id="clip0_3426_730">
<rect width="768" height="531" fill="white" transform="matrix(1 0 0 -1 0 531)"/>
</clipPath>
</defs>
</svg>
